<?xml version="1.0" encoding="UTF-8"?>
<!DOCTYPE svg PUBLIC "-//W3C//DTD SVG 1.1//EN" "http://www.w3.org/Graphics/SVG/1.1/DTD/svg11.dtd">
<!-- Creator: CorelDRAW X6 -->
<svg xmlns="http://www.w3.org/2000/svg" xml:space="preserve" width="5.19444in" height="2.06944in" version="1.1" style="shape-rendering:geometricPrecision; text-rendering:geometricPrecision; image-rendering:optimizeQuality; fill-rule:evenodd; clip-rule:evenodd"
viewBox="0 0 5194 2069"
 xmlns:xlink="http://www.w3.org/1999/xlink">
 <defs>
  <style type="text/css">
   <![CDATA[
    .fil2 {fill:#05A4E1;fill-rule:nonzero}
    .fil1 {fill:#06589C;fill-rule:nonzero}
    .fil0 {fill:#BCBBB7;fill-rule:nonzero}
   ]]>
  </style>
 </defs>
 <g id="Layer_x0020_1">
  <metadata id="CorelCorpID_0Corel-Layer"/>
  <path class="fil0" d="M3097 858c24,57 42,101 51,123l768 0 289 -123 -1108 0z"/>
  <path class="fil0" d="M2080 858l-1123 0 289 123 781 0c13,-30 30,-72 52,-123z"/>
  <polygon class="fil0" points="3905,1934 5058,1934 5196,1887 3905,1887 "/>
  <polygon class="fil0" points="140,1934 1270,1934 1270,1887 2,1887 "/>
  <polygon class="fil1" points="649,1748 649,1474 449,1748 339,1748 145,1475 145,1748 0,1748 0,1367 228,1367 394,1611 560,1367 794,1367 794,1748 "/>
  <path class="fil1" d="M1378 1547c0,-93 -29,-88 -135,-88 -42,0 -83,1 -125,1 -75,0 -96,9 -96,72l0 38c0,92 29,87 134,87 42,0 84,-1 126,-1 74,0 96,-9 96,-71l0 -37zm112 167c-38,30 -123,34 -173,34 -55,0 -110,1 -166,1 -201,0 -279,1 -277,-178l1 -58c1,-127 63,-147 209,-147 59,0 119,-1 179,-1 126,0 254,-12 260,118 1,13 1,26 1,39 0,51 12,154 -34,192z"/>
  <path class="fil1" d="M1974 1460l-223 0 0 92 219 0c43,0 77,-3 77,-45 0,-41 -27,-47 -73,-47zm134 139c77,19 79,51 79,110l0 40 -146 0 0 -26c0,-44 5,-70 -60,-73 -27,-1 -55,-2 -81,-2 -50,0 -100,1 -149,1l0 99 -147 0 0 -382 440 0c125,0 145,47 145,137 0,55 -16,75 -81,95z"/>
  <path class="fil1" d="M2639 1460l-223 0 0 92 219 0c43,0 77,-3 77,-45 0,-41 -27,-47 -73,-47zm134 139c77,19 79,51 79,110l0 40 -146 0 0 -26c0,-44 5,-70 -60,-73 -27,-1 -55,-2 -81,-2 -50,0 -100,1 -149,1l0 99 -147 0 0 -382 440 0c125,0 145,47 145,137 0,55 -16,75 -81,95z"/>
  <polygon class="fil1" points="2931,1748 3077,1748 3077,1367 2931,1367 "/>
  <path class="fil1" d="M3537 1748l-241 0c-103,0 -147,-32 -142,-112l1 -13 143 0c3,25 15,32 46,32l204 0c22,0 59,-2 59,-26 0,-25 -24,-27 -48,-28 -91,-4 -182,-2 -273,-5 -93,-4 -126,-29 -131,-104l-1 -11c-7,-110 76,-114 191,-114l249 0c46,0 99,8 125,42 15,19 15,56 15,78l0 12 -143 0c-3,-35 -22,-39 -61,-39l-166 0c-31,0 -63,1 -63,33 0,25 30,27 54,28 89,4 179,1 269,4 83,4 130,25 130,95l0 8c0,112 -102,120 -215,120z"/>
  <path class="fil1" d="M4332 1547c0,-93 -29,-88 -135,-88 -42,0 -83,1 -125,1 -75,0 -96,9 -96,72l0 38c0,92 29,87 134,87 42,0 84,-1 126,-1 74,0 96,-9 96,-71l0 -37zm112 167c-38,30 -123,34 -173,34 -55,0 -110,1 -166,1 -201,0 -279,1 -277,-178l1 -58c1,-127 63,-147 209,-147 59,0 119,-1 179,-1 126,0 254,-12 260,118 1,13 1,26 1,39 0,51 12,154 -34,192z"/>
  <polygon class="fil1" points="4976,1748 4700,1476 4700,1748 4554,1748 4554,1367 4780,1367 5056,1643 5056,1367 5203,1367 5203,1748 "/>
  <path class="fil2" d="M1435 1907l-75 103 150 0 -75 -103zm120 162l-30 -40 -180 0 -29 40 -33 0 130 -182 39 0 134 182 -33 0z"/>
  <polygon class="fil2" points="1772,2069 1735,2069 1612,1888 1646,1888 1754,2048 1865,1888 1897,1888 "/>
  <polygon class="fil2" points="2022,2069 2051,2069 2051,1888 2022,1888 "/>
  <path class="fil2" d="M2326 1907l-75 103 150 0 -75 -103zm120 162l-30 -40 -179 0 -29 40 -33 0 130 -182 39 0 134 182 -33 0z"/>
  <polygon class="fil2" points="2626,1908 2626,2069 2597,2069 2597,1908 2483,1908 2483,1888 2739,1888 2739,1908 "/>
  <polygon class="fil2" points="2864,2069 2893,2069 2893,1888 2864,1888 "/>
  <path class="fil2" d="M3296 1965c0,-62 -17,-58 -90,-58 -19,0 -103,-1 -114,2 -25,7 -26,20 -26,38l0 39c-1,63 14,63 88,63 24,0 47,-1 71,-1 62,0 71,-7 71,-57l0 -28zm29 36c-1,57 -20,69 -89,69l-125 0c-70,0 -74,-30 -74,-78 0,-62 -13,-104 86,-104l127 0c67,0 75,31 75,77l0 36z"/>
  <polygon class="fil2" points="3704,2069 3499,1910 3499,2069 3470,2069 3470,1888 3514,1888 3720,2048 3720,1888 3749,1888 3749,2069 "/>
  <path class="fil2" d="M2061 1050l-651 0 289 123 477 0 0 0 1 0c7,-17 66,-154 138,-319 -28,-66 -58,-137 -86,-202 -59,141 -120,285 -169,398zm532 -1055l-3 0c-25,1 -52,15 -81,45 -26,27 -48,60 -64,99 0,0 -19,44 -48,115 26,62 57,137 87,209 59,-137 103,-239 103,-239 0,0 45,107 106,249 33,-78 65,-156 91,-220 -29,-71 -48,-115 -48,-115 -16,-39 -37,-72 -62,-98 -29,-29 -56,-44 -81,-45zm522 1055c-51,-122 -109,-263 -165,-397 -29,68 -61,143 -90,213 64,152 118,278 129,303l0 4 475 0 289 -123 -637 0z"/>
  <path class="fil1" d="M3212 793l0 1 1144 0 289 -123 -1284 0c-112,-263 -229,-538 -229,-538 -13,-31 -31,-58 -52,-81 -25,-24 -47,-36 -67,-36 -21,0 -44,12 -67,37 -21,21 -38,48 -51,79 0,0 -176,422 -305,734 -130,-312 -305,-733 -305,-734 -13,-32 -30,-58 -51,-79 -24,-24 -46,-37 -67,-37 -21,0 -43,12 -67,36 -21,22 -39,49 -52,81 0,0 -118,275 -230,538l-1301 0 289 123 1165 0 0 -1 1 0c91,-210 191,-442 191,-442 0,0 308,746 320,772 50,117 164,118 214,0 10,-23 320,-772 320,-772 0,0 100,232 191,442l4 0z"/>
 </g>
</svg>
